<?xml version="1.0" encoding="UTF-8"?>
<svg version="1.1" viewBox="0 0 500 500" fill="none" xmlns="http://www.w3.org/2000/svg">
	<style>
		svg{
			--letter-color: #635f61;
			--cloud-color: #126885;
		}

		@media (prefers-color-scheme: dark) {
			svg{
				--letter-color: #e3e3e3;
				--cloud-color: #a2e1f9;
			}
		}
	</style>

	<g style="fill: var(--letter-color)">
		<path d="m127.94 169.97c-30.104 0-53.75 6.5104-70.938 19.531s-25.781 30.938-25.781 53.75c0 11.354 2.1875 21.458 6.5625 30.312 4.4792 8.8542 11.146 16.458 20 22.812 4.5833 3.125 11.875 6.5104 21.875 10.156 10.104 3.5417 23.646 7.5 40.625 11.875 2.1875 0.52083 5.3646 1.3021 9.5312 2.3438 20.729 5.2083 31.094 11.979 31.094 20.312 0 5.2083-2.5 9.3229-7.5 12.344-4.8958 2.9167-11.667 4.375-20.312 4.375-10.312 0-18.073-1.8229-23.281-5.4688-5.2083-3.6458-8.8021-9.6354-10.781-17.969h-71.875c2.1875 24.792 12.188 44.01 30 57.656 17.917 13.646 42.135 20.469 72.656 20.469 33.125 0 58.542-6.8229 76.25-20.469 17.812-13.646 26.719-33.177 26.719-58.594 0-11.771-2.3438-21.979-7.0312-30.625-4.6875-8.6458-12.135-16.354-22.344-23.125-8.2292-5.5208-25.729-11.667-52.5-18.438-5.9375-1.4583-10.365-2.5521-13.281-3.2812-0.9375-0.20833-2.2917-0.57292-4.0625-1.0938-20.208-5.1042-30.312-11.458-30.312-19.062 0-5.3125 1.9271-9.2708 5.7812-11.875 3.8542-2.6042 9.7396-3.9062 17.656-3.9062 8.9583 0 15.833 1.6667 20.625 5 4.8958 3.3333 7.9167 8.3854 9.0625 15.156h70.156c-2.1875-23.229-11.771-41.042-28.75-53.438-16.979-12.5-40.26-18.75-69.844-18.75z" />
		<path d="m277.67 169.97v242.55h68.752v-242.55zm86 190.42v52.132h55.084v-52.132z" />
	</g>
	<path style="stroke: var(--cloud-color)" stroke-linecap="round" stroke-linejoin="round" stroke-width="13.7" d="m215.06 145.66c8.4998-11.897 24.309-38.801 79.736-25.198 82.574-71.331 160 13.956 141.52 78.701 71.428 64.179-2.09797 117.22-44.873 113.22" />
</svg>
